#!OML:ASF H:\BabyWalks\Project 1\Capture day 1\Session 1\baby.ASF
:FULLY-SPECIFIED
:DEGREES
474
root -11.6145 17.4322 -8.44891 -165.771 73.7041 -164.091
lowerback 16.9752 1.85266 7.04932
upperback 5.86541 4.06199 1.2802
thorax -2.82851 2.23569 -3.39151
lowerneck 4.12696 15.7868 14.3769
upperneck -1.32521 21.8517 -16.1502
head 2.31973 11.08 -6.26197
rclavicle 4.22417e-014 -1.03368e-014
rhumerus -40.857 5.66493 -82.544
rradius 51.666
rwrist 1.85828
rhand -6.8652 -15.2837
rfingers 7.12502
rthumb 19.0005 -44.3757
lclavicle 4.22417e-014 -1.03368e-014
lhumerus -36.0756 -11.0084 79.9134
lradius 59.2787
lwrist 7.40689
lhand -4.7524 12.4307
lfingers 7.12502
lthumb 21.0313 41.3103
rfemur 11.7359 13.8226 28.4204
rtibia 14.8696
rfoot -21.0511 -2.33115
rtoes -8.20784
lfemur -25.5757 -9.58501 -4.74907
ltibia 31.217
lfoot -9.5449 -15.1495
ltoes -6.88775
475
root -11.6734 17.4307 -8.3843 -166.586 72.932 -164.637
lowerback 16.9355 1.75114 7.28878
upperback 5.88678 3.98005 1.43846
thorax -2.78804 2.20176 -3.34075
lowerneck 4.14072 15.7007 14.2925
upperneck -1.08651 21.7586 -16.0748
head 2.35587 11.0311 -6.2328
rclavicle 1.61016e-014 1.27222e-014
rhumerus -40.6204 5.90329 -82.2703
rradius 51.6435
rwrist 1.89572
rhand -7.01096 -15.2988
rfingers 7.12502
rthumb 18.8603 -44.4045
lclavicle 1.61016e-014 1.27222e-014
lhumerus -36.1818 -11.2354 80.2713
lradius 60.0309
lwrist 7.68025
lhand -4.94144 12.3146
lfingers 7.12502
lthumb 20.8497 41.2143
rfemur 11.76 13.3577 28.7156
rtibia 14.9801
rfoot -21.0404 -2.74412
rtoes -7.95375
lfemur -25.4087 -10.1428 -4.61798
ltibia 30.3733
lfoot -8.92226 -15.3183
ltoes -6.90605
476
root -11.7328 17.4299 -8.32024 -167.383 72.1552 -165.171
lowerback 16.9 1.65879 7.54756
upperback 5.89668 3.91252 1.57896
thorax -2.75777 2.17439 -3.32267
lowerneck 4.16249 15.5969 14.2336
upperneck -0.866469 21.6425 -16.0152
head 2.38661 10.9715 -6.21515
rclavicle 6.91771e-014 -2.70347e-014
rhumerus -40.3904 6.07058 -81.9878
rradius 51.6027
rwrist 1.92383
rhand -7.15998 -15.3104
rfingers 7.12502
rthumb 18.7169 -44.4299
lclavicle 6.91771e-014 -2.70347e-014
lhumerus -36.3024 -11.5222 80.631
lradius 60.7641
lwrist 7.94481
lhand -5.07199 12.1847
lfingers 7.12502
lthumb 20.7242 41.0981
rfemur 11.766 12.9106 28.9936
rtibia 15.1017
rfoot -21.0338 -3.17565
rtoes -7.66149
lfemur -25.2286 -10.7035 -4.50794
ltibia 29.4811
lfoot -8.27586 -15.4794
ltoes -6.91963
477
root -11.7924 17.4289 -8.25666 -168.16 71.3758 -165.686
lowerback 16.8694 1.56716 7.80188
upperback 5.90483 3.84589 1.71925
thorax -2.73241 2.1474 -3.3028
lowerneck 4.18688 15.489 14.1825
upperneck -0.667463 21.522 -15.9922
head 2.4154 10.9109 -6.21025
rclavicle 3.43897e-014 -2.5842e-014
rhumerus -40.1511 6.22188 -81.6858
rradius 51.5489
rwrist 1.93671
rhand -7.32051 -15.3276
rfingers 7.12502
rthumb 18.5625 -44.4619
lclavicle 3.43897e-014 -2.5842e-014
lhumerus -36.4358 -11.8084 81.0007
lradius 61.4734
lwrist 8.18779
lhand -5.157 12.0591
lfingers 7.12502
lthumb 20.6426 40.9814
rfemur 11.762 12.4702 29.2573
rtibia 15.2349
rfoot -21.0312 -3.63351
rtoes -7.42457
lfemur -25.0326 -11.2639 -4.41683
ltibia 28.5497
lfoot -7.60906 -15.6354
ltoes -6.93704
478
root -11.853 17.4275 -8.19314 -168.93 70.5868 -166.2
lowerback 16.8503 1.47957 8.05619
upperback 5.90319 3.7854 1.85145
thorax -2.72244 2.12253 -3.29346
lowerneck 4.20472 15.3742 14.1407
upperneck -0.471318 21.3921 -15.9765
head 2.44487 10.8455 -6.20907
rclavicle 1.51076e-014 3.02153e-014
rhumerus -39.9098 6.32813 -81.3688
rradius 51.4785
rwrist 1.93156
rhand -7.47668 -15.3495
rfingers 7.12502
rthumb 18.4123 -44.4981
lclavicle 1.51076e-014 3.02153e-014
lhumerus -36.5824 -12.1164 81.3746
lradius 62.1569
lwrist 8.41393
lhand -5.17646 11.9246
lfingers 7.12502
lthumb 20.6239 40.8489
rfemur 11.741 12.0311 29.5019
rtibia 15.3807
rfoot -21.0311 -4.12084
rtoes -7.26915
lfemur -24.8375 -11.8233 -4.34678
ltibia 27.5915
lfoot -6.91961 -15.7905
ltoes -6.94945
479
root -11.9142 17.4255 -8.12987 -169.688 69.793 -166.702
lowerback 16.8357 1.38609 8.28204
upperback 5.90586 3.71445 1.99779
thorax -2.7147 2.09264 -3.25156
lowerneck 4.2179 15.2686 14.0802
upperneck -0.29472 21.2745 -15.9978
head 2.47352 10.787 -6.21498
rclavicle -6.26172e-014 -4.6118e-014
rhumerus -39.637 6.46179 -81.0209
rradius 51.3896
rwrist 1.90491
rhand -7.60713 -15.3748
rfingers 7.12502
rthumb 18.2868 -44.5352
lclavicle -6.26172e-014 -4.6118e-014
lhumerus -36.7341 -12.3698 81.7628
lradius 62.8086
lwrist 8.61307
lhand -5.13824 11.7876
lfingers 7.12502
lthumb 20.6606 40.7079
rfemur 11.7064 11.5848 29.7265
rtibia 15.5422
rfoot -21.0341 -4.62452
rtoes -7.19741
lfemur -24.6421 -12.3815 -4.29571
ltibia 26.621
lfoot -6.21107 -15.936
ltoes -6.93388
480
root -11.976 17.4227 -8.06666 -170.424 68.9944 -167.184
lowerback 16.8323 1.29423 8.49338
upperback 5.90509 3.64536 2.14897
thorax -2.71788 2.06315 -3.19743
lowerneck 4.21694 15.1659 14.0144
upperneck -0.116268 21.1605 -16.0293
head 2.50613 10.7301 -6.22144
rclavicle 3.18055e-015 2.14687e-014
rhumerus -39.3504 6.58443 -80.6497
rradius 51.2842
rwrist 1.87023
rhand -7.71215 -15.4063
rfingers 7.12502
rthumb 18.1858 -44.5762
lclavicle 3.18055e-015 2.14687e-014
lhumerus -36.8933 -12.6068 82.1584
lradius 63.4272
lwrist 8.79421
lhand -5.0571 11.665
lfingers 7.12502
lthumb 20.7385 40.5768
rfemur 11.6527 11.1245 29.9334
rtibia 15.7295
rfoot -21.0453 -5.13746
rtoes -7.21606
lfemur -24.4516 -12.9368 -4.25916
ltibia 25.6517
lfoot -5.49602 -16.0628
ltoes -6.87602
481
root -12.0386 17.419 -8.00349 -171.133 68.1854 -167.642
lowerback 16.8376 1.19966 8.68521
upperback 5.90388 3.57213 2.31248
thorax -2.72901 2.03139 -3.11906
lowerneck 4.20248 15.0697 13.9393
upperneck 0.0595544 21.0555 -16.0827
head 2.54297 10.6775 -6.23089
rclavicle 4.27387e-014 -1.11319e-014
rhumerus -39.0439 6.72021 -80.2514
rradius 51.1633
rwrist 1.82265
rhand -7.78888 -15.4441
rfingers 7.12502
rthumb 18.112 -44.6208
lclavicle 4.27387e-014 -1.11319e-014
lhumerus -37.0574 -12.8095 82.5647
lradius 64.0121
lwrist 8.95352
lhand -4.92477 11.5608
lfingers 7.12502
lthumb 20.8657 40.4587
rfemur 11.5741 10.6479 30.1251
rtibia 15.9511
rfoot -21.067 -5.65494
rtoes -7.29085
lfemur -24.2743 -13.4877 -4.23545
ltibia 24.6984
lfoot -4.78437 -16.1645
ltoes -6.75358
482
root -12.1021 17.4144 -7.94024 -171.809 67.3612 -168.069
lowerback 16.8576 1.10296 8.87224
upperback 5.89603 3.49836 2.48195
thorax -2.75585 1.99861 -3.03243
lowerneck 4.17087 14.9755 13.8593
upperneck 0.238487 20.9528 -16.1442
head 2.58419 10.6255 -6.24019
rclavicle 3.1408e-014 -1.51076e-014
rhumerus -38.7253 6.85622 -79.835
rradius 51.0199
rwrist 1.78313
rhand -7.86669 -15.4832
rfingers 7.12502
rthumb 18.0371 -44.6668
lclavicle 3.1408e-014 -1.51076e-014
lhumerus -37.2286 -12.9959 82.976
lradius 64.5601
lwrist 9.08979
lhand -4.73528 11.4521
lfingers 7.12502
lthumb 21.0477 40.3298
rfemur 11.4606 10.1517 30.3028
rtibia 16.2182
rfoot -21.1063 -6.16101
rtoes -7.36782
lfemur -24.12 -14.039 -4.22005
ltibia 23.7769
lfoot -4.09296 -16.2225
ltoes -6.54354
483
root -12.1668 17.4088 -7.8769 -172.462 66.519 -168.475
lowerback 16.8948 1.00598 9.05498
upperback 5.88009 3.42689 2.65371
thorax -2.80068 1.96603 -2.94226
lowerneck 4.12685 14.8788 13.7834
upperneck 0.41851 20.8471 -16.2124
head 2.62843 10.5715 -6.25121
rclavicle -3.37934e-015 -6.36111e-015
rhumerus -38.4044 6.97554 -79.4033
rradius 50.8579
rwrist 1.76686
rhand -7.93724 -15.5252
rfingers 7.12502
rthumb 17.9692 -44.7151
lclavicle -3.37934e-015 -6.36111e-015
lhumerus -37.407 -13.1791 83.39
lradius 65.0695
lwrist 9.20495
lhand -4.49054 11.3441
lfingers 7.12502
lthumb 21.2828 40.1956
rfemur 11.3061 9.63611 30.4635
rtibia 16.5467
rfoot -21.1696 -6.65374
rtoes -7.43389
lfemur -23.9913 -14.594 -4.21821
ltibia 22.901
lfoot -3.43915 -16.2084
ltoes -6.19194
484
root -12.2318 17.4025 -7.81399 -173.091 65.6707 -168.865
lowerback 16.9343 0.913956 9.23586
upperback 5.85768 3.36266 2.82314
thorax -2.8529 1.93651 -2.85481
lowerneck 4.0699 14.7785 13.7136
upperneck 0.602267 20.7367 -16.282
head 2.67587 10.5146 -6.26273
rclavicle -7.27552e-014 -1.90833e-014
rhumerus -38.0782 7.0787 -78.9603
rradius 50.6714
rwrist 1.76595
rhand -8.00572 -15.5589
rfingers 7.12502
rthumb 17.9033 -44.7548
lclavicle -7.27552e-014 -1.90833e-014
lhumerus -37.5933 -13.366 83.8039
lradius 65.5384
lwrist 9.29119
lhand -4.19698 11.2401
lfingers 7.12502
lthumb 21.5648 40.0595
rfemur 11.1 9.11291 30.6023
rtibia 16.9549
rfoot -21.2686 -7.121
rtoes -7.44584
lfemur -23.8812 -15.1436 -4.23317
ltibia 22.081
lfoot -2.85025 -16.0733
ltoes -5.64057
485
root -12.2975 17.3952 -7.75141 -173.713 64.8077 -169.249
lowerback 16.9858 0.82291 9.41461
upperback 5.82828 3.30158 2.98629
thorax -2.91838 1.90776 -2.77382
lowerneck 4.00051 14.6731 13.6592
upperneck 0.788907 20.6199 -16.3558
head 2.72721 10.454 -6.27706
rclavicle 7.95139e-016 7.95139e-015
rhumerus -37.7491 7.16245 -78.5113
rradius 50.4594
rwrist 1.7829
rhand -8.07798 -15.5895
rfingers 7.12502
rthumb 17.8338 -44.7917
lclavicle 7.95139e-016 7.95139e-015
lhumerus -37.7909 -13.5628 84.2135
lradius 65.9666
lwrist 9.33957
lhand -3.88236 11.16
lfingers 7.12502
lthumb 21.8669 39.9444
rfemur 10.8455 8.57847 30.7171
rtibia 17.4471
rfoot -21.404 -7.56603
rtoes -7.39853
lfemur -23.7867 -15.6894 -4.27293
ltibia 21.3309
lfoot -2.3792 -15.76
ltoes -4.94842
486
root -12.3636 17.3875 -7.68979 -174.328 63.9451 -169.636
lowerback 17.0339 0.740383 9.58879
upperback 5.79402 3.25057 3.1405
thorax -2.98589 1.88359 -2.7012
lowerneck 3.92235 14.5588 13.6206
upperneck 0.977564 20.4917 -16.4312
head 2.78059 10.3873 -6.29447
rclavicle -2.38542e-015 5.48646e-014
rhumerus -37.4137 7.21805 -78.0543
rradius 50.2167
rwrist 1.82352
rhand -8.1423 -15.6093
rfingers 7.12502
rthumb 17.7719 -44.8172
lclavicle -2.38542e-015 5.48646e-014
lhumerus -37.9985 -13.771 84.6197
lradius 66.3499
lwrist 9.35223
lhand -3.53054 11.0676
lfingers 7.12502
lthumb 22.2047 39.8122
rfemur 10.5367 8.04889 30.7999
rtibia 18.0249
rfoot -21.5766 -7.97874
rtoes -7.26759
lfemur -23.7034 -16.2202 -4.34184
ltibia 20.6615
lfoot -2.09636 -15.1747
ltoes -4.21817
487
root -12.429 17.3793 -7.63041 -174.945 63.1139 -170.021
lowerback 17.0755 0.67113 9.75419
upperback 5.7661 3.2145 3.28644
thorax -3.04156 1.86758 -2.63438
lowerneck 3.84269 14.4394 13.6029
upperneck 1.15923 20.3583 -16.5261
head 2.83557 10.3182 -6.32105
rclavicle -1.11319e-014 5.56597e-015
rhumerus -37.0645 7.26234 -77.5904
rradius 49.9417
rwrist 1.88855
rhand -8.20349 -15.6244
rfingers 7.12502
rthumb 17.713 -44.8376
lclavicle -1.11319e-014 5.56597e-015
lhumerus -38.2166 -13.9762 85.0235
lradius 66.6855
lwrist 9.32256
lhand -3.18204 10.9884
lfingers 7.12502
lthumb 22.5393 39.6928
rfemur 10.1973 7.52788 30.8468
rtibia 18.6831
rfoot -21.78 -8.35453
rtoes -7.12776
lfemur -23.5963 -16.7122 -4.44769
ltibia 20.0787
lfoot -2.04778 -14.2295
ltoes -3.53209
